%TF.GenerationSoftware,KiCad,Pcbnew,(6.0.10)*%
%TF.CreationDate,2023-02-17T12:20:43-08:00*%
%TF.ProjectId,Excercise2,45786365-7263-4697-9365-322e6b696361,rev?*%
%TF.SameCoordinates,Original*%
%TF.FileFunction,Copper,L2,Bot*%
%TF.FilePolarity,Positive*%
%FSLAX46Y46*%
G04 Gerber Fmt 4.6, Leading zero omitted, Abs format (unit mm)*
G04 Created by KiCad (PCBNEW (6.0.10)) date 2023-02-17 12:20:43*
%MOMM*%
%LPD*%
G01*
G04 APERTURE LIST*
%TA.AperFunction,ComponentPad*%
%ADD10R,3.000000X3.000000*%
%TD*%
%TA.AperFunction,ComponentPad*%
%ADD11C,3.000000*%
%TD*%
%TA.AperFunction,ViaPad*%
%ADD12C,0.800000*%
%TD*%
%TA.AperFunction,Conductor*%
%ADD13C,0.254000*%
%TD*%
%TA.AperFunction,Conductor*%
%ADD14C,0.508000*%
%TD*%
G04 APERTURE END LIST*
D10*
%TO.P,J1,1,Pin_1*%
%TO.N,+9V*%
X152270000Y-60960000D03*
D11*
%TO.P,J1,2,Pin_2*%
%TO.N,GND*%
X147190000Y-60960000D03*
%TD*%
D12*
%TO.N,/pin_2*%
X147320000Y-73660000D03*
X144780000Y-78740000D03*
X157480000Y-76200000D03*
X149860000Y-78740000D03*
%TO.N,GND*%
X142240000Y-63500000D03*
X149860000Y-68580000D03*
%TO.N,/pin_7*%
X142240000Y-71120000D03*
X157480000Y-73660000D03*
%TO.N,/pin_3*%
X160020000Y-73660000D03*
X147320000Y-74711500D03*
%TD*%
D13*
%TO.N,/pin_2*%
X147320000Y-73660000D02*
X144780000Y-76200000D01*
X157480000Y-76200000D02*
X154940000Y-78740000D01*
X144780000Y-76200000D02*
X144780000Y-78740000D01*
X154940000Y-78740000D02*
X149860000Y-78740000D01*
D14*
%TO.N,GND*%
X149860000Y-68580000D02*
X144780000Y-63500000D01*
X144780000Y-63500000D02*
X142240000Y-63500000D01*
D13*
%TO.N,/pin_7*%
X157480000Y-73660000D02*
X156753000Y-72933000D01*
X156753000Y-72933000D02*
X144053000Y-72933000D01*
X144053000Y-72933000D02*
X142240000Y-71120000D01*
%TO.N,/pin_3*%
X158508134Y-73660000D02*
X160020000Y-73660000D01*
X157456634Y-74711500D02*
X158508134Y-73660000D01*
X147320000Y-74711500D02*
X157456634Y-74711500D01*
%TD*%
%TA.AperFunction,Conductor*%
%TO.N,GND*%
G36*
X164533621Y-53868502D02*
G01*
X164580114Y-53922158D01*
X164591500Y-53974500D01*
X164591500Y-90805500D01*
X164571498Y-90873621D01*
X164517842Y-90920114D01*
X164465500Y-90931500D01*
X162737119Y-90931500D01*
X162668998Y-90911498D01*
X162622505Y-90857842D01*
X162611119Y-90805500D01*
X162611119Y-86669000D01*
X152348881Y-86669000D01*
X152348881Y-90805500D01*
X152328879Y-90873621D01*
X152275223Y-90920114D01*
X152222881Y-90931500D01*
X135254500Y-90931500D01*
X135186379Y-90911498D01*
X135139886Y-90857842D01*
X135128500Y-90805500D01*
X135128500Y-71120000D01*
X141326496Y-71120000D01*
X141346458Y-71309928D01*
X141405473Y-71491556D01*
X141500960Y-71656944D01*
X141628747Y-71798866D01*
X141783248Y-71911118D01*
X141789276Y-71913802D01*
X141789278Y-71913803D01*
X141951681Y-71986109D01*
X141957712Y-71988794D01*
X142051112Y-72008647D01*
X142138056Y-72027128D01*
X142138061Y-72027128D01*
X142144513Y-72028500D01*
X142197578Y-72028500D01*
X142265699Y-72048502D01*
X142286673Y-72065405D01*
X143547745Y-73326477D01*
X143555322Y-73334803D01*
X143559447Y-73341303D01*
X143565225Y-73346729D01*
X143565226Y-73346730D01*
X143609281Y-73388100D01*
X143612123Y-73390855D01*
X143631906Y-73410638D01*
X143635114Y-73413126D01*
X143644143Y-73420837D01*
X143676494Y-73451217D01*
X143683443Y-73455037D01*
X143694329Y-73461022D01*
X143710853Y-73471876D01*
X143726933Y-73484349D01*
X143734210Y-73487498D01*
X143767650Y-73501969D01*
X143778311Y-73507192D01*
X143810247Y-73524749D01*
X143810252Y-73524751D01*
X143817197Y-73528569D01*
X143824871Y-73530539D01*
X143824878Y-73530542D01*
X143836913Y-73533632D01*
X143855618Y-73540036D01*
X143867013Y-73544967D01*
X143874292Y-73548117D01*
X143901342Y-73552401D01*
X143918127Y-73555060D01*
X143929740Y-73557465D01*
X143972718Y-73568500D01*
X143993065Y-73568500D01*
X144012777Y-73570051D01*
X144032879Y-73573235D01*
X144040771Y-73572489D01*
X144077056Y-73569059D01*
X144088914Y-73568500D01*
X146208577Y-73568500D01*
X146276698Y-73588502D01*
X146323191Y-73642158D01*
X146333295Y-73712432D01*
X146303801Y-73777012D01*
X146297672Y-73783595D01*
X144386517Y-75694750D01*
X144378191Y-75702326D01*
X144371697Y-75706447D01*
X144366274Y-75712222D01*
X144324915Y-75756265D01*
X144322160Y-75759107D01*
X144302361Y-75778906D01*
X144299937Y-75782031D01*
X144299929Y-75782040D01*
X144299863Y-75782126D01*
X144292155Y-75791151D01*
X144261783Y-75823494D01*
X144257965Y-75830438D01*
X144257964Y-75830440D01*
X144251978Y-75841329D01*
X144241127Y-75857847D01*
X144228650Y-75873933D01*
X144211024Y-75914666D01*
X144205807Y-75925314D01*
X144184431Y-75964197D01*
X144182460Y-75971872D01*
X144182458Y-75971878D01*
X144179369Y-75983911D01*
X144172966Y-76002613D01*
X144164883Y-76021292D01*
X144163644Y-76029117D01*
X144157940Y-76065127D01*
X144155535Y-76076740D01*
X144144500Y-76119718D01*
X144144500Y-76140065D01*
X144142949Y-76159776D01*
X144139765Y-76179879D01*
X144140511Y-76187771D01*
X144143941Y-76224056D01*
X144144500Y-76235914D01*
X144144500Y-78039697D01*
X144124498Y-78107818D01*
X144112136Y-78124006D01*
X144040960Y-78203056D01*
X143945473Y-78368444D01*
X143886458Y-78550072D01*
X143866496Y-78740000D01*
X143886458Y-78929928D01*
X143945473Y-79111556D01*
X144040960Y-79276944D01*
X144045378Y-79281851D01*
X144045379Y-79281852D01*
X144129700Y-79375500D01*
X144168747Y-79418866D01*
X144323248Y-79531118D01*
X144329276Y-79533802D01*
X144329278Y-79533803D01*
X144491681Y-79606109D01*
X144497712Y-79608794D01*
X144591113Y-79628647D01*
X144678056Y-79647128D01*
X144678061Y-79647128D01*
X144684513Y-79648500D01*
X144875487Y-79648500D01*
X144881939Y-79647128D01*
X144881944Y-79647128D01*
X144968887Y-79628647D01*
X145062288Y-79608794D01*
X145068319Y-79606109D01*
X145230722Y-79533803D01*
X145230724Y-79533802D01*
X145236752Y-79531118D01*
X145391253Y-79418866D01*
X145430300Y-79375500D01*
X145514621Y-79281852D01*
X145514622Y-79281851D01*
X145519040Y-79276944D01*
X145614527Y-79111556D01*
X145673542Y-78929928D01*
X145693504Y-78740000D01*
X145673542Y-78550072D01*
X145614527Y-78368444D01*
X145519040Y-78203056D01*
X145447864Y-78124007D01*
X145417146Y-78060000D01*
X145415500Y-78039697D01*
X145415500Y-76515422D01*
X145435502Y-76447301D01*
X145452405Y-76426327D01*
X146510444Y-75368288D01*
X146572756Y-75334262D01*
X146643571Y-75339327D01*
X146693174Y-75373071D01*
X146701990Y-75382862D01*
X146708747Y-75390366D01*
X146714086Y-75394245D01*
X146847164Y-75490932D01*
X146863248Y-75502618D01*
X146869276Y-75505302D01*
X146869278Y-75505303D01*
X147031681Y-75577609D01*
X147037712Y-75580294D01*
X147131112Y-75600147D01*
X147218056Y-75618628D01*
X147218061Y-75618628D01*
X147224513Y-75620000D01*
X147415487Y-75620000D01*
X147421939Y-75618628D01*
X147421944Y-75618628D01*
X147508888Y-75600147D01*
X147602288Y-75580294D01*
X147608319Y-75577609D01*
X147770722Y-75505303D01*
X147770724Y-75505302D01*
X147776752Y-75502618D01*
X147792837Y-75490932D01*
X147925914Y-75394245D01*
X147931253Y-75390366D01*
X147935669Y-75385462D01*
X147940580Y-75381040D01*
X147942221Y-75382862D01*
X147993210Y-75351450D01*
X148026399Y-75347000D01*
X156742538Y-75347000D01*
X156810659Y-75367002D01*
X156857152Y-75420658D01*
X156867256Y-75490932D01*
X156836174Y-75557310D01*
X156740960Y-75663056D01*
X156645473Y-75828444D01*
X156586458Y-76010072D01*
X156585768Y-76016633D01*
X156585768Y-76016635D01*
X156569425Y-76172132D01*
X156542412Y-76237789D01*
X156533210Y-76248057D01*
X154713672Y-78067595D01*
X154651360Y-78101621D01*
X154624577Y-78104500D01*
X150566399Y-78104500D01*
X150498278Y-78084498D01*
X150481092Y-78069891D01*
X150480580Y-78070460D01*
X150475668Y-78066037D01*
X150471253Y-78061134D01*
X150316752Y-77948882D01*
X150310724Y-77946198D01*
X150310722Y-77946197D01*
X150148319Y-77873891D01*
X150148318Y-77873891D01*
X150142288Y-77871206D01*
X150048888Y-77851353D01*
X149961944Y-77832872D01*
X149961939Y-77832872D01*
X149955487Y-77831500D01*
X149764513Y-77831500D01*
X149758061Y-77832872D01*
X149758056Y-77832872D01*
X149671112Y-77851353D01*
X149577712Y-77871206D01*
X149571682Y-77873891D01*
X149571681Y-77873891D01*
X149409278Y-77946197D01*
X149409276Y-77946198D01*
X149403248Y-77948882D01*
X149248747Y-78061134D01*
X149244326Y-78066044D01*
X149244325Y-78066045D01*
X149206713Y-78107818D01*
X149120960Y-78203056D01*
X149025473Y-78368444D01*
X148966458Y-78550072D01*
X148946496Y-78740000D01*
X148966458Y-78929928D01*
X149025473Y-79111556D01*
X149120960Y-79276944D01*
X149125378Y-79281851D01*
X149125379Y-79281852D01*
X149209700Y-79375500D01*
X149248747Y-79418866D01*
X149403248Y-79531118D01*
X149409276Y-79533802D01*
X149409278Y-79533803D01*
X149571681Y-79606109D01*
X149577712Y-79608794D01*
X149671113Y-79628647D01*
X149758056Y-79647128D01*
X149758061Y-79647128D01*
X149764513Y-79648500D01*
X149955487Y-79648500D01*
X149961939Y-79647128D01*
X149961944Y-79647128D01*
X150048887Y-79628647D01*
X150142288Y-79608794D01*
X150148319Y-79606109D01*
X150310722Y-79533803D01*
X150310724Y-79533802D01*
X150316752Y-79531118D01*
X150471253Y-79418866D01*
X150475668Y-79413963D01*
X150480580Y-79409540D01*
X150482221Y-79411362D01*
X150533210Y-79379950D01*
X150566399Y-79375500D01*
X154860980Y-79375500D01*
X154872214Y-79376030D01*
X154879719Y-79377708D01*
X154948012Y-79375562D01*
X154951969Y-79375500D01*
X154979983Y-79375500D01*
X154983908Y-79375004D01*
X154983909Y-79375004D01*
X154984004Y-79374992D01*
X154995849Y-79374059D01*
X155025670Y-79373122D01*
X155032282Y-79372914D01*
X155032283Y-79372914D01*
X155040205Y-79372665D01*
X155059749Y-79366987D01*
X155079112Y-79362977D01*
X155091440Y-79361420D01*
X155091442Y-79361420D01*
X155099299Y-79360427D01*
X155106663Y-79357511D01*
X155106668Y-79357510D01*
X155140556Y-79344093D01*
X155151785Y-79340248D01*
X155168465Y-79335402D01*
X155194393Y-79327869D01*
X155201220Y-79323831D01*
X155201223Y-79323830D01*
X155211906Y-79317512D01*
X155229664Y-79308812D01*
X155241215Y-79304239D01*
X155241221Y-79304235D01*
X155248588Y-79301319D01*
X155284491Y-79275234D01*
X155294410Y-79268719D01*
X155325768Y-79250174D01*
X155325772Y-79250171D01*
X155332598Y-79246134D01*
X155346982Y-79231750D01*
X155362016Y-79218909D01*
X155372073Y-79211602D01*
X155378487Y-79206942D01*
X155406778Y-79172744D01*
X155414767Y-79163965D01*
X157433327Y-77145405D01*
X157495639Y-77111379D01*
X157522422Y-77108500D01*
X157575487Y-77108500D01*
X157581939Y-77107128D01*
X157581944Y-77107128D01*
X157668887Y-77088647D01*
X157762288Y-77068794D01*
X157768319Y-77066109D01*
X157930722Y-76993803D01*
X157930724Y-76993802D01*
X157936752Y-76991118D01*
X158091253Y-76878866D01*
X158219040Y-76736944D01*
X158314527Y-76571556D01*
X158373542Y-76389928D01*
X158393504Y-76200000D01*
X158379944Y-76070987D01*
X158374232Y-76016635D01*
X158374232Y-76016633D01*
X158373542Y-76010072D01*
X158314527Y-75828444D01*
X158219040Y-75663056D01*
X158091253Y-75521134D01*
X157936752Y-75408882D01*
X157930727Y-75406200D01*
X157930721Y-75406196D01*
X157918009Y-75400537D01*
X157913652Y-75398597D01*
X157859556Y-75352619D01*
X157838905Y-75284693D01*
X157858256Y-75216384D01*
X157883622Y-75189266D01*
X157882929Y-75188528D01*
X157888706Y-75183103D01*
X157895121Y-75178442D01*
X157923407Y-75144250D01*
X157931397Y-75135469D01*
X158734463Y-74332404D01*
X158796775Y-74298379D01*
X158823558Y-74295500D01*
X159313601Y-74295500D01*
X159381722Y-74315502D01*
X159398908Y-74330109D01*
X159399420Y-74329540D01*
X159404332Y-74333963D01*
X159408747Y-74338866D01*
X159563248Y-74451118D01*
X159569276Y-74453802D01*
X159569278Y-74453803D01*
X159731681Y-74526109D01*
X159737712Y-74528794D01*
X159831113Y-74548647D01*
X159918056Y-74567128D01*
X159918061Y-74567128D01*
X159924513Y-74568500D01*
X160115487Y-74568500D01*
X160121939Y-74567128D01*
X160121944Y-74567128D01*
X160208887Y-74548647D01*
X160302288Y-74528794D01*
X160308319Y-74526109D01*
X160470722Y-74453803D01*
X160470724Y-74453802D01*
X160476752Y-74451118D01*
X160631253Y-74338866D01*
X160635675Y-74333955D01*
X160754621Y-74201852D01*
X160754622Y-74201851D01*
X160759040Y-74196944D01*
X160829932Y-74074155D01*
X160851223Y-74037279D01*
X160851224Y-74037278D01*
X160854527Y-74031556D01*
X160913542Y-73849928D01*
X160933504Y-73660000D01*
X160924306Y-73572489D01*
X160914232Y-73476635D01*
X160914232Y-73476633D01*
X160913542Y-73470072D01*
X160854527Y-73288444D01*
X160759040Y-73123056D01*
X160727061Y-73087539D01*
X160635675Y-72986045D01*
X160635671Y-72986041D01*
X160631253Y-72981134D01*
X160476752Y-72868882D01*
X160470724Y-72866198D01*
X160470722Y-72866197D01*
X160308319Y-72793891D01*
X160308318Y-72793891D01*
X160302288Y-72791206D01*
X160208887Y-72771353D01*
X160121944Y-72752872D01*
X160121939Y-72752872D01*
X160115487Y-72751500D01*
X159924513Y-72751500D01*
X159918061Y-72752872D01*
X159918056Y-72752872D01*
X159831113Y-72771353D01*
X159737712Y-72791206D01*
X159731682Y-72793891D01*
X159731681Y-72793891D01*
X159569278Y-72866197D01*
X159569276Y-72866198D01*
X159563248Y-72868882D01*
X159408747Y-72981134D01*
X159404332Y-72986037D01*
X159399420Y-72990460D01*
X159397779Y-72988638D01*
X159346790Y-73020050D01*
X159313601Y-73024500D01*
X158587166Y-73024500D01*
X158575927Y-73023970D01*
X158568415Y-73022291D01*
X158560490Y-73022540D01*
X158560489Y-73022540D01*
X158500104Y-73024438D01*
X158496146Y-73024500D01*
X158468151Y-73024500D01*
X158464217Y-73024997D01*
X158464215Y-73024997D01*
X158464128Y-73025008D01*
X158452294Y-73025940D01*
X158407930Y-73027335D01*
X158392067Y-73031944D01*
X158388391Y-73033012D01*
X158369030Y-73037021D01*
X158356702Y-73038578D01*
X158356692Y-73038581D01*
X158348835Y-73039573D01*
X158341467Y-73042490D01*
X158341464Y-73042491D01*
X158307580Y-73055906D01*
X158296353Y-73059750D01*
X158265793Y-73068629D01*
X158194796Y-73068428D01*
X158137002Y-73031944D01*
X158131597Y-73025941D01*
X158091253Y-72981134D01*
X157936752Y-72868882D01*
X157930724Y-72866198D01*
X157930722Y-72866197D01*
X157768319Y-72793891D01*
X157768318Y-72793891D01*
X157762288Y-72791206D01*
X157668887Y-72771353D01*
X157581944Y-72752872D01*
X157581939Y-72752872D01*
X157575487Y-72751500D01*
X157522423Y-72751500D01*
X157454302Y-72731498D01*
X157433328Y-72714595D01*
X157258250Y-72539517D01*
X157250674Y-72531191D01*
X157246553Y-72524697D01*
X157196734Y-72477914D01*
X157193893Y-72475160D01*
X157174094Y-72455361D01*
X157170969Y-72452937D01*
X157170960Y-72452929D01*
X157170874Y-72452863D01*
X157161849Y-72445155D01*
X157135285Y-72420210D01*
X157129506Y-72414783D01*
X157111669Y-72404977D01*
X157095153Y-72394127D01*
X157079067Y-72381650D01*
X157038334Y-72364024D01*
X157027686Y-72358807D01*
X157016058Y-72352415D01*
X156988803Y-72337431D01*
X156981128Y-72335460D01*
X156981122Y-72335458D01*
X156969089Y-72332369D01*
X156950387Y-72325966D01*
X156931708Y-72317883D01*
X156897872Y-72312524D01*
X156887873Y-72310940D01*
X156876260Y-72308535D01*
X156833282Y-72297500D01*
X156812935Y-72297500D01*
X156793224Y-72295949D01*
X156780950Y-72294005D01*
X156773121Y-72292765D01*
X156765229Y-72293511D01*
X156728944Y-72296941D01*
X156717086Y-72297500D01*
X144368423Y-72297500D01*
X144300302Y-72277498D01*
X144279328Y-72260595D01*
X143186790Y-71168057D01*
X143152764Y-71105745D01*
X143150575Y-71092132D01*
X143134232Y-70936635D01*
X143134232Y-70936633D01*
X143133542Y-70930072D01*
X143074527Y-70748444D01*
X142979040Y-70583056D01*
X142851253Y-70441134D01*
X142696752Y-70328882D01*
X142690724Y-70326198D01*
X142690722Y-70326197D01*
X142528319Y-70253891D01*
X142528318Y-70253891D01*
X142522288Y-70251206D01*
X142428888Y-70231353D01*
X142341944Y-70212872D01*
X142341939Y-70212872D01*
X142335487Y-70211500D01*
X142144513Y-70211500D01*
X142138061Y-70212872D01*
X142138056Y-70212872D01*
X142051112Y-70231353D01*
X141957712Y-70251206D01*
X141951682Y-70253891D01*
X141951681Y-70253891D01*
X141789278Y-70326197D01*
X141789276Y-70326198D01*
X141783248Y-70328882D01*
X141628747Y-70441134D01*
X141500960Y-70583056D01*
X141405473Y-70748444D01*
X141346458Y-70930072D01*
X141326496Y-71120000D01*
X135128500Y-71120000D01*
X135128500Y-62549654D01*
X145965618Y-62549654D01*
X145972673Y-62559627D01*
X146003679Y-62585551D01*
X146010598Y-62590579D01*
X146235272Y-62731515D01*
X146242807Y-62735556D01*
X146484520Y-62844694D01*
X146492551Y-62847680D01*
X146746832Y-62923002D01*
X146755184Y-62924869D01*
X147017340Y-62964984D01*
X147025874Y-62965700D01*
X147291045Y-62969867D01*
X147299596Y-62969418D01*
X147562883Y-62937557D01*
X147571284Y-62935955D01*
X147827824Y-62868653D01*
X147835926Y-62865926D01*
X148080949Y-62764434D01*
X148088617Y-62760628D01*
X148317598Y-62626822D01*
X148324679Y-62622009D01*
X148404655Y-62559301D01*
X148413125Y-62547442D01*
X148406608Y-62535818D01*
X148378924Y-62508134D01*
X150261500Y-62508134D01*
X150268255Y-62570316D01*
X150319385Y-62706705D01*
X150406739Y-62823261D01*
X150523295Y-62910615D01*
X150659684Y-62961745D01*
X150721866Y-62968500D01*
X153818134Y-62968500D01*
X153880316Y-62961745D01*
X154016705Y-62910615D01*
X154133261Y-62823261D01*
X154220615Y-62706705D01*
X154271745Y-62570316D01*
X154278500Y-62508134D01*
X154278500Y-59411866D01*
X154271745Y-59349684D01*
X154220615Y-59213295D01*
X154133261Y-59096739D01*
X154016705Y-59009385D01*
X153880316Y-58958255D01*
X153818134Y-58951500D01*
X150721866Y-58951500D01*
X150659684Y-58958255D01*
X150523295Y-59009385D01*
X150406739Y-59096739D01*
X150319385Y-59213295D01*
X150268255Y-59349684D01*
X150261500Y-59411866D01*
X150261500Y-62508134D01*
X148378924Y-62508134D01*
X147202812Y-61332022D01*
X147188868Y-61324408D01*
X147187035Y-61324539D01*
X147180420Y-61328790D01*
X145972910Y-62536300D01*
X145965618Y-62549654D01*
X135128500Y-62549654D01*
X135128500Y-60943204D01*
X145177665Y-60943204D01*
X145192932Y-61207969D01*
X145194005Y-61216470D01*
X145245065Y-61476722D01*
X145247276Y-61484974D01*
X145333184Y-61735894D01*
X145336499Y-61743779D01*
X145455664Y-61980713D01*
X145460020Y-61988079D01*
X145589347Y-62176250D01*
X145599601Y-62184594D01*
X145613342Y-62177448D01*
X146817978Y-60972812D01*
X146824356Y-60961132D01*
X147554408Y-60961132D01*
X147554539Y-60962965D01*
X147558790Y-60969580D01*
X148765730Y-62176520D01*
X148777939Y-62183187D01*
X148789439Y-62174497D01*
X148886831Y-62041913D01*
X148891418Y-62034685D01*
X149017962Y-61801621D01*
X149021530Y-61793827D01*
X149115271Y-61545750D01*
X149117748Y-61537544D01*
X149176954Y-61279038D01*
X149178294Y-61270577D01*
X149202031Y-61004616D01*
X149202277Y-60999677D01*
X149202666Y-60962485D01*
X149202523Y-60957519D01*
X149184362Y-60691123D01*
X149183201Y-60682649D01*
X149129419Y-60422944D01*
X149127120Y-60414709D01*
X149038588Y-60164705D01*
X149035191Y-60156854D01*
X148913550Y-59921178D01*
X148909122Y-59913866D01*
X148790031Y-59744417D01*
X148779509Y-59736037D01*
X148766121Y-59743089D01*
X147562022Y-60947188D01*
X147554408Y-60961132D01*
X146824356Y-60961132D01*
X146825592Y-60958868D01*
X146825461Y-60957035D01*
X146821210Y-60950420D01*
X145613814Y-59743024D01*
X145601804Y-59736466D01*
X145590064Y-59745434D01*
X145481935Y-59895911D01*
X145477418Y-59903196D01*
X145353325Y-60137567D01*
X145349839Y-60145395D01*
X145258700Y-60394446D01*
X145256311Y-60402670D01*
X145199812Y-60661795D01*
X145198563Y-60670250D01*
X145177754Y-60934653D01*
X145177665Y-60943204D01*
X135128500Y-60943204D01*
X135128500Y-59372500D01*
X145966584Y-59372500D01*
X145972980Y-59383770D01*
X147177188Y-60587978D01*
X147191132Y-60595592D01*
X147192965Y-60595461D01*
X147199580Y-60591210D01*
X148406604Y-59384186D01*
X148413795Y-59371017D01*
X148406473Y-59360780D01*
X148359233Y-59322115D01*
X148352261Y-59317160D01*
X148126122Y-59178582D01*
X148118552Y-59174624D01*
X147875704Y-59068022D01*
X147867644Y-59065120D01*
X147612592Y-58992467D01*
X147604214Y-58990685D01*
X147341656Y-58953318D01*
X147333111Y-58952691D01*
X147067908Y-58951302D01*
X147059374Y-58951839D01*
X146796433Y-58986456D01*
X146788035Y-58988149D01*
X146532238Y-59058127D01*
X146524143Y-59060946D01*
X146280199Y-59164997D01*
X146272577Y-59168881D01*
X146045013Y-59305075D01*
X146037981Y-59309962D01*
X145975053Y-59360377D01*
X145966584Y-59372500D01*
X135128500Y-59372500D01*
X135128500Y-53974500D01*
X135148502Y-53906379D01*
X135202158Y-53859886D01*
X135254500Y-53848500D01*
X164465500Y-53848500D01*
X164533621Y-53868502D01*
G37*
%TD.AperFunction*%
%TD*%
M02*
