%TF.GenerationSoftware,KiCad,Pcbnew,(6.0.10)*%
%TF.CreationDate,2023-02-17T12:20:43-08:00*%
%TF.ProjectId,Excercise2,45786365-7263-4697-9365-322e6b696361,rev?*%
%TF.SameCoordinates,Original*%
%TF.FileFunction,Copper,L1,Top*%
%TF.FilePolarity,Positive*%
%FSLAX46Y46*%
G04 Gerber Fmt 4.6, Leading zero omitted, Abs format (unit mm)*
G04 Created by KiCad (PCBNEW (6.0.10)) date 2023-02-17 12:20:43*
%MOMM*%
%LPD*%
G01*
G04 APERTURE LIST*
G04 Aperture macros list*
%AMRoundRect*
0 Rectangle with rounded corners*
0 $1 Rounding radius*
0 $2 $3 $4 $5 $6 $7 $8 $9 X,Y pos of 4 corners*
0 Add a 4 corners polygon primitive as box body*
4,1,4,$2,$3,$4,$5,$6,$7,$8,$9,$2,$3,0*
0 Add four circle primitives for the rounded corners*
1,1,$1+$1,$2,$3*
1,1,$1+$1,$4,$5*
1,1,$1+$1,$6,$7*
1,1,$1+$1,$8,$9*
0 Add four rect primitives between the rounded corners*
20,1,$1+$1,$2,$3,$4,$5,0*
20,1,$1+$1,$4,$5,$6,$7,0*
20,1,$1+$1,$6,$7,$8,$9,0*
20,1,$1+$1,$8,$9,$2,$3,0*%
G04 Aperture macros list end*
%TA.AperFunction,SMDPad,CuDef*%
%ADD10RoundRect,0.250001X0.624999X-0.462499X0.624999X0.462499X-0.624999X0.462499X-0.624999X-0.462499X0*%
%TD*%
%TA.AperFunction,SMDPad,CuDef*%
%ADD11RoundRect,0.250000X0.450000X-0.350000X0.450000X0.350000X-0.450000X0.350000X-0.450000X-0.350000X0*%
%TD*%
%TA.AperFunction,SMDPad,CuDef*%
%ADD12RoundRect,0.150000X-0.825000X-0.150000X0.825000X-0.150000X0.825000X0.150000X-0.825000X0.150000X0*%
%TD*%
%TA.AperFunction,SMDPad,CuDef*%
%ADD13R,2.290000X3.000000*%
%TD*%
%TA.AperFunction,SMDPad,CuDef*%
%ADD14RoundRect,0.250000X-0.425000X0.537500X-0.425000X-0.537500X0.425000X-0.537500X0.425000X0.537500X0*%
%TD*%
%TA.AperFunction,ComponentPad*%
%ADD15R,3.000000X3.000000*%
%TD*%
%TA.AperFunction,ComponentPad*%
%ADD16C,3.000000*%
%TD*%
%TA.AperFunction,SMDPad,CuDef*%
%ADD17RoundRect,0.250000X-0.475000X0.337500X-0.475000X-0.337500X0.475000X-0.337500X0.475000X0.337500X0*%
%TD*%
%TA.AperFunction,ViaPad*%
%ADD18C,0.800000*%
%TD*%
%TA.AperFunction,Conductor*%
%ADD19C,0.254000*%
%TD*%
%TA.AperFunction,Conductor*%
%ADD20C,0.508000*%
%TD*%
G04 APERTURE END LIST*
D10*
%TO.P,D1,1,K*%
%TO.N,Net-(D1-Pad1)*%
X160020000Y-62447500D03*
%TO.P,D1,2,A*%
%TO.N,+9V*%
X160020000Y-59472500D03*
%TD*%
D11*
%TO.P,R2,1*%
%TO.N,/pin_2*%
X142240000Y-76972936D03*
%TO.P,R2,2*%
%TO.N,/pin_7*%
X142240000Y-74972936D03*
%TD*%
D12*
%TO.P,U1,1,GND*%
%TO.N,GND*%
X149335000Y-71755000D03*
%TO.P,U1,2,TR*%
%TO.N,/pin_2*%
X149335000Y-73025000D03*
%TO.P,U1,3,Q*%
%TO.N,/pin_3*%
X149335000Y-74295000D03*
%TO.P,U1,4,R*%
%TO.N,+9V*%
X149335000Y-75565000D03*
%TO.P,U1,5,CV*%
%TO.N,Net-(C2-Pad1)*%
X154285000Y-75565000D03*
%TO.P,U1,6,THR*%
%TO.N,/pin_2*%
X154285000Y-74295000D03*
%TO.P,U1,7,DIS*%
%TO.N,/pin_7*%
X154285000Y-73025000D03*
%TO.P,U1,8,VCC*%
%TO.N,+9V*%
X154285000Y-71755000D03*
D13*
%TO.P,U1,9*%
%TO.N,N/C*%
X151810000Y-73660000D03*
%TD*%
D14*
%TO.P,C1,1*%
%TO.N,/pin_2*%
X142240000Y-82382500D03*
%TO.P,C1,2*%
%TO.N,GND*%
X142240000Y-85257500D03*
%TD*%
D15*
%TO.P,J1,1,Pin_1*%
%TO.N,+9V*%
X152270000Y-60960000D03*
D16*
%TO.P,J1,2,Pin_2*%
%TO.N,GND*%
X147190000Y-60960000D03*
%TD*%
D11*
%TO.P,R4,1*%
%TO.N,Net-(D2-Pad2)*%
X161072500Y-77200000D03*
%TO.P,R4,2*%
%TO.N,/pin_3*%
X161072500Y-75200000D03*
%TD*%
D17*
%TO.P,C2,1*%
%TO.N,Net-(C2-Pad1)*%
X152400000Y-82782500D03*
%TO.P,C2,2*%
%TO.N,GND*%
X152400000Y-84857500D03*
%TD*%
D11*
%TO.P,R3,1*%
%TO.N,/pin_3*%
X160697500Y-69892936D03*
%TO.P,R3,2*%
%TO.N,Net-(D1-Pad1)*%
X160697500Y-67892936D03*
%TD*%
%TO.P,R1,1*%
%TO.N,/pin_7*%
X142240000Y-69580000D03*
%TO.P,R1,2*%
%TO.N,+9V*%
X142240000Y-67580000D03*
%TD*%
D10*
%TO.P,D2,1,K*%
%TO.N,GND*%
X161072500Y-85307500D03*
%TO.P,D2,2,A*%
%TO.N,Net-(D2-Pad2)*%
X161072500Y-82332500D03*
%TD*%
D18*
%TO.N,/pin_2*%
X147320000Y-73660000D03*
X144780000Y-78740000D03*
X157480000Y-76200000D03*
X149860000Y-78740000D03*
%TO.N,GND*%
X142240000Y-63500000D03*
X149860000Y-68580000D03*
%TO.N,/pin_7*%
X142240000Y-71120000D03*
X157480000Y-73660000D03*
%TO.N,/pin_3*%
X160020000Y-73660000D03*
X147320000Y-74711500D03*
%TD*%
D19*
%TO.N,/pin_2*%
X154285000Y-74295000D02*
X155575000Y-74295000D01*
X142240000Y-76972936D02*
X142240000Y-78740000D01*
X142240000Y-78740000D02*
X142240000Y-82382500D01*
X149860000Y-78740000D02*
X144780000Y-78740000D01*
X147955000Y-73025000D02*
X147320000Y-73660000D01*
X149335000Y-73025000D02*
X147955000Y-73025000D01*
X155575000Y-74295000D02*
X157480000Y-76200000D01*
X144780000Y-78740000D02*
X142240000Y-78740000D01*
D20*
%TO.N,GND*%
X152000000Y-85257500D02*
X142240000Y-85257500D01*
D19*
X142240000Y-85257500D02*
X142640000Y-84857500D01*
D20*
X148357500Y-88900000D02*
X152400000Y-84857500D01*
X152850000Y-85307500D02*
X152400000Y-84857500D01*
X161072500Y-85307500D02*
X152850000Y-85307500D01*
X142240000Y-60960000D02*
X139700000Y-60960000D01*
X139700000Y-60960000D02*
X137160000Y-63500000D01*
X142240000Y-63500000D02*
X142240000Y-60960000D01*
X137160000Y-88900000D02*
X148357500Y-88900000D01*
X147190000Y-60960000D02*
X142240000Y-60960000D01*
X149335000Y-69105000D02*
X149860000Y-68580000D01*
X137160000Y-63500000D02*
X137160000Y-88900000D01*
X149335000Y-71755000D02*
X149335000Y-69105000D01*
X152400000Y-84857500D02*
X152000000Y-85257500D01*
D19*
%TO.N,Net-(C2-Pad1)*%
X154285000Y-75565000D02*
X152400000Y-77450000D01*
X152400000Y-77450000D02*
X152400000Y-82782500D01*
%TO.N,Net-(D1-Pad1)*%
X160020000Y-67215436D02*
X160697500Y-67892936D01*
X160020000Y-62447500D02*
X160020000Y-67215436D01*
D20*
%TO.N,+9V*%
X152270000Y-60960000D02*
X145650000Y-67580000D01*
X144780000Y-68450000D02*
X145650000Y-67580000D01*
X144780000Y-73660000D02*
X144780000Y-68450000D01*
X154285000Y-71755000D02*
X152270000Y-69740000D01*
X158532500Y-60960000D02*
X160020000Y-59472500D01*
X152270000Y-60960000D02*
X158532500Y-60960000D01*
X146685000Y-75565000D02*
X144780000Y-73660000D01*
X145650000Y-67580000D02*
X142240000Y-67580000D01*
X152270000Y-69740000D02*
X152270000Y-60960000D01*
X147906000Y-65324000D02*
X152270000Y-60960000D01*
X149335000Y-75565000D02*
X146685000Y-75565000D01*
D19*
%TO.N,Net-(D2-Pad2)*%
X161072500Y-77200000D02*
X161072500Y-82332500D01*
%TO.N,/pin_7*%
X142240000Y-74972936D02*
X142240000Y-71120000D01*
X142240000Y-71120000D02*
X142240000Y-69580000D01*
X154285000Y-73025000D02*
X154920000Y-73660000D01*
X154920000Y-73660000D02*
X157480000Y-73660000D01*
%TO.N,/pin_3*%
X160697500Y-74825000D02*
X161072500Y-75200000D01*
X149335000Y-74295000D02*
X147736500Y-74295000D01*
X160697500Y-69892936D02*
X160697500Y-71797500D01*
X160020000Y-72475000D02*
X160697500Y-71797500D01*
X160697500Y-71797500D02*
X160697500Y-74825000D01*
X160020000Y-73660000D02*
X160020000Y-72475000D01*
X147736500Y-74295000D02*
X147320000Y-74711500D01*
%TD*%
M02*
