%TF.GenerationSoftware,KiCad,Pcbnew,(6.0.10)*%
%TF.CreationDate,2023-02-17T12:20:43-08:00*%
%TF.ProjectId,Excercise2,45786365-7263-4697-9365-322e6b696361,rev?*%
%TF.SameCoordinates,Original*%
%TF.FileFunction,Profile,NP*%
%FSLAX46Y46*%
G04 Gerber Fmt 4.6, Leading zero omitted, Abs format (unit mm)*
G04 Created by KiCad (PCBNEW (6.0.10)) date 2023-02-17 12:20:43*
%MOMM*%
%LPD*%
G01*
G04 APERTURE LIST*
%TA.AperFunction,Profile*%
%ADD10C,0.100000*%
%TD*%
%ADD11C,0.150000*%
G04 APERTURE END LIST*
D10*
X134620000Y-53340000D02*
X165100000Y-53340000D01*
X165100000Y-53340000D02*
X165100000Y-91440000D01*
X165100000Y-91440000D02*
X134620000Y-91440000D01*
X134620000Y-91440000D02*
X134620000Y-53340000D01*
D11*
X153122857Y-88261666D02*
X153599047Y-88261666D01*
X153027619Y-88547380D02*
X153360952Y-87547380D01*
X153694285Y-88547380D01*
X154027619Y-88547380D02*
X154027619Y-87880714D01*
X154027619Y-88071190D02*
X154075238Y-87975952D01*
X154122857Y-87928333D01*
X154218095Y-87880714D01*
X154313333Y-87880714D01*
X154646666Y-87880714D02*
X154646666Y-88737857D01*
X154599047Y-88833095D01*
X154503809Y-88880714D01*
X154456190Y-88880714D01*
X154646666Y-87547380D02*
X154599047Y-87595000D01*
X154646666Y-87642619D01*
X154694285Y-87595000D01*
X154646666Y-87547380D01*
X154646666Y-87642619D01*
X155551428Y-87880714D02*
X155551428Y-88547380D01*
X155122857Y-87880714D02*
X155122857Y-88404523D01*
X155170476Y-88499761D01*
X155265714Y-88547380D01*
X155408571Y-88547380D01*
X155503809Y-88499761D01*
X155551428Y-88452142D01*
X156027619Y-87880714D02*
X156027619Y-88547380D01*
X156027619Y-87975952D02*
X156075238Y-87928333D01*
X156170476Y-87880714D01*
X156313333Y-87880714D01*
X156408571Y-87928333D01*
X156456190Y-88023571D01*
X156456190Y-88547380D01*
X157646666Y-88499761D02*
X157789523Y-88547380D01*
X158027619Y-88547380D01*
X158122857Y-88499761D01*
X158170476Y-88452142D01*
X158218095Y-88356904D01*
X158218095Y-88261666D01*
X158170476Y-88166428D01*
X158122857Y-88118809D01*
X158027619Y-88071190D01*
X157837142Y-88023571D01*
X157741904Y-87975952D01*
X157694285Y-87928333D01*
X157646666Y-87833095D01*
X157646666Y-87737857D01*
X157694285Y-87642619D01*
X157741904Y-87595000D01*
X157837142Y-87547380D01*
X158075238Y-87547380D01*
X158218095Y-87595000D01*
X158646666Y-88547380D02*
X158646666Y-87880714D01*
X158646666Y-87547380D02*
X158599047Y-87595000D01*
X158646666Y-87642619D01*
X158694285Y-87595000D01*
X158646666Y-87547380D01*
X158646666Y-87642619D01*
X159122857Y-88547380D02*
X159122857Y-87880714D01*
X159122857Y-87975952D02*
X159170476Y-87928333D01*
X159265714Y-87880714D01*
X159408571Y-87880714D01*
X159503809Y-87928333D01*
X159551428Y-88023571D01*
X159551428Y-88547380D01*
X159551428Y-88023571D02*
X159599047Y-87928333D01*
X159694285Y-87880714D01*
X159837142Y-87880714D01*
X159932380Y-87928333D01*
X159980000Y-88023571D01*
X159980000Y-88547380D01*
X160456190Y-88547380D02*
X160456190Y-87547380D01*
X160884761Y-88547380D02*
X160884761Y-88023571D01*
X160837142Y-87928333D01*
X160741904Y-87880714D01*
X160599047Y-87880714D01*
X160503809Y-87928333D01*
X160456190Y-87975952D01*
X161789523Y-88547380D02*
X161789523Y-88023571D01*
X161741904Y-87928333D01*
X161646666Y-87880714D01*
X161456190Y-87880714D01*
X161360952Y-87928333D01*
X161789523Y-88499761D02*
X161694285Y-88547380D01*
X161456190Y-88547380D01*
X161360952Y-88499761D01*
X161313333Y-88404523D01*
X161313333Y-88309285D01*
X161360952Y-88214047D01*
X161456190Y-88166428D01*
X161694285Y-88166428D01*
X161789523Y-88118809D01*
X153765714Y-89633571D02*
X154099047Y-89633571D01*
X154241904Y-90157380D02*
X153765714Y-90157380D01*
X153765714Y-89157380D01*
X154241904Y-89157380D01*
X154575238Y-90157380D02*
X155099047Y-89490714D01*
X154575238Y-89490714D02*
X155099047Y-90157380D01*
X155860952Y-90109761D02*
X155765714Y-90157380D01*
X155575238Y-90157380D01*
X155480000Y-90109761D01*
X155432380Y-90014523D01*
X155432380Y-89633571D01*
X155480000Y-89538333D01*
X155575238Y-89490714D01*
X155765714Y-89490714D01*
X155860952Y-89538333D01*
X155908571Y-89633571D01*
X155908571Y-89728809D01*
X155432380Y-89824047D01*
X156337142Y-90157380D02*
X156337142Y-89490714D01*
X156337142Y-89681190D02*
X156384761Y-89585952D01*
X156432380Y-89538333D01*
X156527619Y-89490714D01*
X156622857Y-89490714D01*
X157384761Y-90109761D02*
X157289523Y-90157380D01*
X157099047Y-90157380D01*
X157003809Y-90109761D01*
X156956190Y-90062142D01*
X156908571Y-89966904D01*
X156908571Y-89681190D01*
X156956190Y-89585952D01*
X157003809Y-89538333D01*
X157099047Y-89490714D01*
X157289523Y-89490714D01*
X157384761Y-89538333D01*
X157813333Y-90157380D02*
X157813333Y-89490714D01*
X157813333Y-89157380D02*
X157765714Y-89205000D01*
X157813333Y-89252619D01*
X157860952Y-89205000D01*
X157813333Y-89157380D01*
X157813333Y-89252619D01*
X158241904Y-90109761D02*
X158337142Y-90157380D01*
X158527619Y-90157380D01*
X158622857Y-90109761D01*
X158670476Y-90014523D01*
X158670476Y-89966904D01*
X158622857Y-89871666D01*
X158527619Y-89824047D01*
X158384761Y-89824047D01*
X158289523Y-89776428D01*
X158241904Y-89681190D01*
X158241904Y-89633571D01*
X158289523Y-89538333D01*
X158384761Y-89490714D01*
X158527619Y-89490714D01*
X158622857Y-89538333D01*
X159480000Y-90109761D02*
X159384761Y-90157380D01*
X159194285Y-90157380D01*
X159099047Y-90109761D01*
X159051428Y-90014523D01*
X159051428Y-89633571D01*
X159099047Y-89538333D01*
X159194285Y-89490714D01*
X159384761Y-89490714D01*
X159480000Y-89538333D01*
X159527619Y-89633571D01*
X159527619Y-89728809D01*
X159051428Y-89824047D01*
X160670476Y-89252619D02*
X160718095Y-89205000D01*
X160813333Y-89157380D01*
X161051428Y-89157380D01*
X161146666Y-89205000D01*
X161194285Y-89252619D01*
X161241904Y-89347857D01*
X161241904Y-89443095D01*
X161194285Y-89585952D01*
X160622857Y-90157380D01*
X161241904Y-90157380D01*
M02*
