%TF.GenerationSoftware,KiCad,Pcbnew,(6.0.10)*%
%TF.CreationDate,2023-02-17T12:21:37-08:00*%
%TF.ProjectId,Excercise2,45786365-7263-4697-9365-322e6b696361,rev?*%
%TF.SameCoordinates,Original*%
%TF.FileFunction,Drillmap*%
%TF.FilePolarity,Positive*%
%FSLAX45Y45*%
G04 Gerber Fmt 4.5, Leading zero omitted, Abs format (unit mm)*
G04 Created by KiCad (PCBNEW (6.0.10)) date 2023-02-17 12:21:37*
%MOMM*%
%LPD*%
G01*
G04 APERTURE LIST*
%ADD10C,0.100000*%
%ADD11C,0.200000*%
%ADD12C,0.040000*%
%ADD13C,0.152000*%
G04 APERTURE END LIST*
D10*
X13462000Y-5334000D02*
X16510000Y-5334000D01*
X16510000Y-5334000D02*
X16510000Y-9144000D01*
X16510000Y-9144000D02*
X13462000Y-9144000D01*
X13462000Y-9144000D02*
X13462000Y-5334000D01*
D11*
D12*
X14204000Y-6330000D02*
X14244000Y-6370000D01*
X14244000Y-6330000D02*
X14204000Y-6370000D01*
X14204000Y-7092000D02*
X14244000Y-7132000D01*
X14244000Y-7092000D02*
X14204000Y-7132000D01*
X14458000Y-7854000D02*
X14498000Y-7894000D01*
X14498000Y-7854000D02*
X14458000Y-7894000D01*
X14712000Y-7346000D02*
X14752000Y-7386000D01*
X14752000Y-7346000D02*
X14712000Y-7386000D01*
X14712000Y-7451150D02*
X14752000Y-7491150D01*
X14752000Y-7451150D02*
X14712000Y-7491150D01*
X14966000Y-6838000D02*
X15006000Y-6878000D01*
X15006000Y-6838000D02*
X14966000Y-6878000D01*
X14966000Y-7854000D02*
X15006000Y-7894000D01*
X15006000Y-7854000D02*
X14966000Y-7894000D01*
X15728000Y-7346000D02*
X15768000Y-7386000D01*
X15768000Y-7346000D02*
X15728000Y-7386000D01*
X15728000Y-7600000D02*
X15768000Y-7640000D01*
X15768000Y-7600000D02*
X15728000Y-7640000D01*
X15982000Y-7346000D02*
X16022000Y-7386000D01*
X16022000Y-7346000D02*
X15982000Y-7386000D01*
D13*
X14795000Y-6096000D02*
G75*
G03*
X14795000Y-6096000I-76000J0D01*
G01*
X15303000Y-6096000D02*
G75*
G03*
X15303000Y-6096000I-76000J0D01*
G01*
D11*
X13714619Y-9459476D02*
X13714619Y-9259476D01*
X13762238Y-9259476D01*
X13790809Y-9269000D01*
X13809857Y-9288048D01*
X13819381Y-9307095D01*
X13828905Y-9345190D01*
X13828905Y-9373762D01*
X13819381Y-9411857D01*
X13809857Y-9430905D01*
X13790809Y-9449952D01*
X13762238Y-9459476D01*
X13714619Y-9459476D01*
X13914619Y-9459476D02*
X13914619Y-9326143D01*
X13914619Y-9364238D02*
X13924143Y-9345190D01*
X13933667Y-9335667D01*
X13952714Y-9326143D01*
X13971762Y-9326143D01*
X14038428Y-9459476D02*
X14038428Y-9326143D01*
X14038428Y-9259476D02*
X14028905Y-9269000D01*
X14038428Y-9278524D01*
X14047952Y-9269000D01*
X14038428Y-9259476D01*
X14038428Y-9278524D01*
X14162238Y-9459476D02*
X14143190Y-9449952D01*
X14133667Y-9430905D01*
X14133667Y-9259476D01*
X14267000Y-9459476D02*
X14247952Y-9449952D01*
X14238428Y-9430905D01*
X14238428Y-9259476D01*
X14495571Y-9459476D02*
X14495571Y-9259476D01*
X14562238Y-9402333D01*
X14628905Y-9259476D01*
X14628905Y-9459476D01*
X14809857Y-9459476D02*
X14809857Y-9354714D01*
X14800333Y-9335667D01*
X14781286Y-9326143D01*
X14743190Y-9326143D01*
X14724143Y-9335667D01*
X14809857Y-9449952D02*
X14790809Y-9459476D01*
X14743190Y-9459476D01*
X14724143Y-9449952D01*
X14714619Y-9430905D01*
X14714619Y-9411857D01*
X14724143Y-9392810D01*
X14743190Y-9383286D01*
X14790809Y-9383286D01*
X14809857Y-9373762D01*
X14905095Y-9326143D02*
X14905095Y-9526143D01*
X14905095Y-9335667D02*
X14924143Y-9326143D01*
X14962238Y-9326143D01*
X14981286Y-9335667D01*
X14990809Y-9345190D01*
X15000333Y-9364238D01*
X15000333Y-9421381D01*
X14990809Y-9440429D01*
X14981286Y-9449952D01*
X14962238Y-9459476D01*
X14924143Y-9459476D01*
X14905095Y-9449952D01*
X15086048Y-9440429D02*
X15095571Y-9449952D01*
X15086048Y-9459476D01*
X15076524Y-9449952D01*
X15086048Y-9440429D01*
X15086048Y-9459476D01*
X15086048Y-9335667D02*
X15095571Y-9345190D01*
X15086048Y-9354714D01*
X15076524Y-9345190D01*
X15086048Y-9335667D01*
X15086048Y-9354714D01*
D12*
X13417000Y-9769000D02*
X13457000Y-9809000D01*
X13457000Y-9769000D02*
X13417000Y-9809000D01*
D11*
X13752714Y-9679476D02*
X13771762Y-9679476D01*
X13790809Y-9689000D01*
X13800333Y-9698524D01*
X13809857Y-9717571D01*
X13819381Y-9755667D01*
X13819381Y-9803286D01*
X13809857Y-9841381D01*
X13800333Y-9860429D01*
X13790809Y-9869952D01*
X13771762Y-9879476D01*
X13752714Y-9879476D01*
X13733667Y-9869952D01*
X13724143Y-9860429D01*
X13714619Y-9841381D01*
X13705095Y-9803286D01*
X13705095Y-9755667D01*
X13714619Y-9717571D01*
X13724143Y-9698524D01*
X13733667Y-9689000D01*
X13752714Y-9679476D01*
X13905095Y-9860429D02*
X13914619Y-9869952D01*
X13905095Y-9879476D01*
X13895571Y-9869952D01*
X13905095Y-9860429D01*
X13905095Y-9879476D01*
X14086048Y-9746143D02*
X14086048Y-9879476D01*
X14038428Y-9669952D02*
X13990809Y-9812810D01*
X14114619Y-9812810D01*
X14228905Y-9679476D02*
X14247952Y-9679476D01*
X14267000Y-9689000D01*
X14276524Y-9698524D01*
X14286048Y-9717571D01*
X14295571Y-9755667D01*
X14295571Y-9803286D01*
X14286048Y-9841381D01*
X14276524Y-9860429D01*
X14267000Y-9869952D01*
X14247952Y-9879476D01*
X14228905Y-9879476D01*
X14209857Y-9869952D01*
X14200333Y-9860429D01*
X14190809Y-9841381D01*
X14181286Y-9803286D01*
X14181286Y-9755667D01*
X14190809Y-9717571D01*
X14200333Y-9698524D01*
X14209857Y-9689000D01*
X14228905Y-9679476D01*
X14419381Y-9679476D02*
X14438428Y-9679476D01*
X14457476Y-9689000D01*
X14467000Y-9698524D01*
X14476524Y-9717571D01*
X14486048Y-9755667D01*
X14486048Y-9803286D01*
X14476524Y-9841381D01*
X14467000Y-9860429D01*
X14457476Y-9869952D01*
X14438428Y-9879476D01*
X14419381Y-9879476D01*
X14400333Y-9869952D01*
X14390809Y-9860429D01*
X14381286Y-9841381D01*
X14371762Y-9803286D01*
X14371762Y-9755667D01*
X14381286Y-9717571D01*
X14390809Y-9698524D01*
X14400333Y-9689000D01*
X14419381Y-9679476D01*
X14571762Y-9879476D02*
X14571762Y-9746143D01*
X14571762Y-9765190D02*
X14581286Y-9755667D01*
X14600333Y-9746143D01*
X14628905Y-9746143D01*
X14647952Y-9755667D01*
X14657476Y-9774714D01*
X14657476Y-9879476D01*
X14657476Y-9774714D02*
X14667000Y-9755667D01*
X14686048Y-9746143D01*
X14714619Y-9746143D01*
X14733667Y-9755667D01*
X14743190Y-9774714D01*
X14743190Y-9879476D01*
X14838428Y-9879476D02*
X14838428Y-9746143D01*
X14838428Y-9765190D02*
X14847952Y-9755667D01*
X14867000Y-9746143D01*
X14895571Y-9746143D01*
X14914619Y-9755667D01*
X14924143Y-9774714D01*
X14924143Y-9879476D01*
X14924143Y-9774714D02*
X14933667Y-9755667D01*
X14952714Y-9746143D01*
X14981286Y-9746143D01*
X15000333Y-9755667D01*
X15009857Y-9774714D01*
X15009857Y-9879476D01*
X15400333Y-9669952D02*
X15228905Y-9927095D01*
X15657476Y-9679476D02*
X15676524Y-9679476D01*
X15695571Y-9689000D01*
X15705095Y-9698524D01*
X15714619Y-9717571D01*
X15724143Y-9755667D01*
X15724143Y-9803286D01*
X15714619Y-9841381D01*
X15705095Y-9860429D01*
X15695571Y-9869952D01*
X15676524Y-9879476D01*
X15657476Y-9879476D01*
X15638428Y-9869952D01*
X15628905Y-9860429D01*
X15619381Y-9841381D01*
X15609857Y-9803286D01*
X15609857Y-9755667D01*
X15619381Y-9717571D01*
X15628905Y-9698524D01*
X15638428Y-9689000D01*
X15657476Y-9679476D01*
X15809857Y-9860429D02*
X15819381Y-9869952D01*
X15809857Y-9879476D01*
X15800333Y-9869952D01*
X15809857Y-9860429D01*
X15809857Y-9879476D01*
X15943190Y-9679476D02*
X15962238Y-9679476D01*
X15981286Y-9689000D01*
X15990809Y-9698524D01*
X16000333Y-9717571D01*
X16009857Y-9755667D01*
X16009857Y-9803286D01*
X16000333Y-9841381D01*
X15990809Y-9860429D01*
X15981286Y-9869952D01*
X15962238Y-9879476D01*
X15943190Y-9879476D01*
X15924143Y-9869952D01*
X15914619Y-9860429D01*
X15905095Y-9841381D01*
X15895571Y-9803286D01*
X15895571Y-9755667D01*
X15905095Y-9717571D01*
X15914619Y-9698524D01*
X15924143Y-9689000D01*
X15943190Y-9679476D01*
X16200333Y-9879476D02*
X16086048Y-9879476D01*
X16143190Y-9879476D02*
X16143190Y-9679476D01*
X16124143Y-9708048D01*
X16105095Y-9727095D01*
X16086048Y-9736619D01*
X16381286Y-9679476D02*
X16286048Y-9679476D01*
X16276524Y-9774714D01*
X16286048Y-9765190D01*
X16305095Y-9755667D01*
X16352714Y-9755667D01*
X16371762Y-9765190D01*
X16381286Y-9774714D01*
X16390809Y-9793762D01*
X16390809Y-9841381D01*
X16381286Y-9860429D01*
X16371762Y-9869952D01*
X16352714Y-9879476D01*
X16305095Y-9879476D01*
X16286048Y-9869952D01*
X16276524Y-9860429D01*
X16457476Y-9679476D02*
X16590809Y-9679476D01*
X16505095Y-9879476D01*
X16657476Y-9679476D02*
X16657476Y-9717571D01*
X16733667Y-9679476D02*
X16733667Y-9717571D01*
X17028905Y-9955667D02*
X17019381Y-9946143D01*
X17000333Y-9917571D01*
X16990810Y-9898524D01*
X16981286Y-9869952D01*
X16971762Y-9822333D01*
X16971762Y-9784238D01*
X16981286Y-9736619D01*
X16990810Y-9708048D01*
X17000333Y-9689000D01*
X17019381Y-9660429D01*
X17028905Y-9650905D01*
X17209857Y-9879476D02*
X17095571Y-9879476D01*
X17152714Y-9879476D02*
X17152714Y-9679476D01*
X17133667Y-9708048D01*
X17114619Y-9727095D01*
X17095571Y-9736619D01*
X17333667Y-9679476D02*
X17352714Y-9679476D01*
X17371762Y-9689000D01*
X17381286Y-9698524D01*
X17390810Y-9717571D01*
X17400333Y-9755667D01*
X17400333Y-9803286D01*
X17390810Y-9841381D01*
X17381286Y-9860429D01*
X17371762Y-9869952D01*
X17352714Y-9879476D01*
X17333667Y-9879476D01*
X17314619Y-9869952D01*
X17305095Y-9860429D01*
X17295571Y-9841381D01*
X17286048Y-9803286D01*
X17286048Y-9755667D01*
X17295571Y-9717571D01*
X17305095Y-9698524D01*
X17314619Y-9689000D01*
X17333667Y-9679476D01*
X17638429Y-9879476D02*
X17638429Y-9679476D01*
X17724143Y-9879476D02*
X17724143Y-9774714D01*
X17714619Y-9755667D01*
X17695571Y-9746143D01*
X17667000Y-9746143D01*
X17647952Y-9755667D01*
X17638429Y-9765190D01*
X17847952Y-9879476D02*
X17828905Y-9869952D01*
X17819381Y-9860429D01*
X17809857Y-9841381D01*
X17809857Y-9784238D01*
X17819381Y-9765190D01*
X17828905Y-9755667D01*
X17847952Y-9746143D01*
X17876524Y-9746143D01*
X17895571Y-9755667D01*
X17905095Y-9765190D01*
X17914619Y-9784238D01*
X17914619Y-9841381D01*
X17905095Y-9860429D01*
X17895571Y-9869952D01*
X17876524Y-9879476D01*
X17847952Y-9879476D01*
X18028905Y-9879476D02*
X18009857Y-9869952D01*
X18000333Y-9850905D01*
X18000333Y-9679476D01*
X18181286Y-9869952D02*
X18162238Y-9879476D01*
X18124143Y-9879476D01*
X18105095Y-9869952D01*
X18095571Y-9850905D01*
X18095571Y-9774714D01*
X18105095Y-9755667D01*
X18124143Y-9746143D01*
X18162238Y-9746143D01*
X18181286Y-9755667D01*
X18190810Y-9774714D01*
X18190810Y-9793762D01*
X18095571Y-9812810D01*
X18267000Y-9869952D02*
X18286048Y-9879476D01*
X18324143Y-9879476D01*
X18343190Y-9869952D01*
X18352714Y-9850905D01*
X18352714Y-9841381D01*
X18343190Y-9822333D01*
X18324143Y-9812810D01*
X18295571Y-9812810D01*
X18276524Y-9803286D01*
X18267000Y-9784238D01*
X18267000Y-9774714D01*
X18276524Y-9755667D01*
X18295571Y-9746143D01*
X18324143Y-9746143D01*
X18343190Y-9755667D01*
X18419381Y-9955667D02*
X18428905Y-9946143D01*
X18447952Y-9917571D01*
X18457476Y-9898524D01*
X18467000Y-9869952D01*
X18476524Y-9822333D01*
X18476524Y-9784238D01*
X18467000Y-9736619D01*
X18457476Y-9708048D01*
X18447952Y-9689000D01*
X18428905Y-9660429D01*
X18419381Y-9650905D01*
D13*
X13457000Y-10053000D02*
G75*
G03*
X13457000Y-10053000I-76000J0D01*
G01*
D11*
X13819381Y-10143476D02*
X13705095Y-10143476D01*
X13762238Y-10143476D02*
X13762238Y-9943476D01*
X13743190Y-9972048D01*
X13724143Y-9991095D01*
X13705095Y-10000619D01*
X13905095Y-10124429D02*
X13914619Y-10133952D01*
X13905095Y-10143476D01*
X13895571Y-10133952D01*
X13905095Y-10124429D01*
X13905095Y-10143476D01*
X14095571Y-9943476D02*
X14000333Y-9943476D01*
X13990809Y-10038714D01*
X14000333Y-10029190D01*
X14019381Y-10019667D01*
X14067000Y-10019667D01*
X14086048Y-10029190D01*
X14095571Y-10038714D01*
X14105095Y-10057762D01*
X14105095Y-10105381D01*
X14095571Y-10124429D01*
X14086048Y-10133952D01*
X14067000Y-10143476D01*
X14019381Y-10143476D01*
X14000333Y-10133952D01*
X13990809Y-10124429D01*
X14181286Y-9962524D02*
X14190809Y-9953000D01*
X14209857Y-9943476D01*
X14257476Y-9943476D01*
X14276524Y-9953000D01*
X14286048Y-9962524D01*
X14295571Y-9981571D01*
X14295571Y-10000619D01*
X14286048Y-10029190D01*
X14171762Y-10143476D01*
X14295571Y-10143476D01*
X14419381Y-9943476D02*
X14438428Y-9943476D01*
X14457476Y-9953000D01*
X14467000Y-9962524D01*
X14476524Y-9981571D01*
X14486048Y-10019667D01*
X14486048Y-10067286D01*
X14476524Y-10105381D01*
X14467000Y-10124429D01*
X14457476Y-10133952D01*
X14438428Y-10143476D01*
X14419381Y-10143476D01*
X14400333Y-10133952D01*
X14390809Y-10124429D01*
X14381286Y-10105381D01*
X14371762Y-10067286D01*
X14371762Y-10019667D01*
X14381286Y-9981571D01*
X14390809Y-9962524D01*
X14400333Y-9953000D01*
X14419381Y-9943476D01*
X14571762Y-10143476D02*
X14571762Y-10010143D01*
X14571762Y-10029190D02*
X14581286Y-10019667D01*
X14600333Y-10010143D01*
X14628905Y-10010143D01*
X14647952Y-10019667D01*
X14657476Y-10038714D01*
X14657476Y-10143476D01*
X14657476Y-10038714D02*
X14667000Y-10019667D01*
X14686048Y-10010143D01*
X14714619Y-10010143D01*
X14733667Y-10019667D01*
X14743190Y-10038714D01*
X14743190Y-10143476D01*
X14838428Y-10143476D02*
X14838428Y-10010143D01*
X14838428Y-10029190D02*
X14847952Y-10019667D01*
X14867000Y-10010143D01*
X14895571Y-10010143D01*
X14914619Y-10019667D01*
X14924143Y-10038714D01*
X14924143Y-10143476D01*
X14924143Y-10038714D02*
X14933667Y-10019667D01*
X14952714Y-10010143D01*
X14981286Y-10010143D01*
X15000333Y-10019667D01*
X15009857Y-10038714D01*
X15009857Y-10143476D01*
X15400333Y-9933952D02*
X15228905Y-10191095D01*
X15657476Y-9943476D02*
X15676524Y-9943476D01*
X15695571Y-9953000D01*
X15705095Y-9962524D01*
X15714619Y-9981571D01*
X15724143Y-10019667D01*
X15724143Y-10067286D01*
X15714619Y-10105381D01*
X15705095Y-10124429D01*
X15695571Y-10133952D01*
X15676524Y-10143476D01*
X15657476Y-10143476D01*
X15638428Y-10133952D01*
X15628905Y-10124429D01*
X15619381Y-10105381D01*
X15609857Y-10067286D01*
X15609857Y-10019667D01*
X15619381Y-9981571D01*
X15628905Y-9962524D01*
X15638428Y-9953000D01*
X15657476Y-9943476D01*
X15809857Y-10124429D02*
X15819381Y-10133952D01*
X15809857Y-10143476D01*
X15800333Y-10133952D01*
X15809857Y-10124429D01*
X15809857Y-10143476D01*
X15943190Y-9943476D02*
X15962238Y-9943476D01*
X15981286Y-9953000D01*
X15990809Y-9962524D01*
X16000333Y-9981571D01*
X16009857Y-10019667D01*
X16009857Y-10067286D01*
X16000333Y-10105381D01*
X15990809Y-10124429D01*
X15981286Y-10133952D01*
X15962238Y-10143476D01*
X15943190Y-10143476D01*
X15924143Y-10133952D01*
X15914619Y-10124429D01*
X15905095Y-10105381D01*
X15895571Y-10067286D01*
X15895571Y-10019667D01*
X15905095Y-9981571D01*
X15914619Y-9962524D01*
X15924143Y-9953000D01*
X15943190Y-9943476D01*
X16190809Y-9943476D02*
X16095571Y-9943476D01*
X16086048Y-10038714D01*
X16095571Y-10029190D01*
X16114619Y-10019667D01*
X16162238Y-10019667D01*
X16181286Y-10029190D01*
X16190809Y-10038714D01*
X16200333Y-10057762D01*
X16200333Y-10105381D01*
X16190809Y-10124429D01*
X16181286Y-10133952D01*
X16162238Y-10143476D01*
X16114619Y-10143476D01*
X16095571Y-10133952D01*
X16086048Y-10124429D01*
X16295571Y-10143476D02*
X16333667Y-10143476D01*
X16352714Y-10133952D01*
X16362238Y-10124429D01*
X16381286Y-10095857D01*
X16390809Y-10057762D01*
X16390809Y-9981571D01*
X16381286Y-9962524D01*
X16371762Y-9953000D01*
X16352714Y-9943476D01*
X16314619Y-9943476D01*
X16295571Y-9953000D01*
X16286048Y-9962524D01*
X16276524Y-9981571D01*
X16276524Y-10029190D01*
X16286048Y-10048238D01*
X16295571Y-10057762D01*
X16314619Y-10067286D01*
X16352714Y-10067286D01*
X16371762Y-10057762D01*
X16381286Y-10048238D01*
X16390809Y-10029190D01*
X16505095Y-10029190D02*
X16486048Y-10019667D01*
X16476524Y-10010143D01*
X16467000Y-9991095D01*
X16467000Y-9981571D01*
X16476524Y-9962524D01*
X16486048Y-9953000D01*
X16505095Y-9943476D01*
X16543190Y-9943476D01*
X16562238Y-9953000D01*
X16571762Y-9962524D01*
X16581286Y-9981571D01*
X16581286Y-9991095D01*
X16571762Y-10010143D01*
X16562238Y-10019667D01*
X16543190Y-10029190D01*
X16505095Y-10029190D01*
X16486048Y-10038714D01*
X16476524Y-10048238D01*
X16467000Y-10067286D01*
X16467000Y-10105381D01*
X16476524Y-10124429D01*
X16486048Y-10133952D01*
X16505095Y-10143476D01*
X16543190Y-10143476D01*
X16562238Y-10133952D01*
X16571762Y-10124429D01*
X16581286Y-10105381D01*
X16581286Y-10067286D01*
X16571762Y-10048238D01*
X16562238Y-10038714D01*
X16543190Y-10029190D01*
X16657476Y-9943476D02*
X16657476Y-9981571D01*
X16733667Y-9943476D02*
X16733667Y-9981571D01*
X17028905Y-10219667D02*
X17019381Y-10210143D01*
X17000333Y-10181571D01*
X16990810Y-10162524D01*
X16981286Y-10133952D01*
X16971762Y-10086333D01*
X16971762Y-10048238D01*
X16981286Y-10000619D01*
X16990810Y-9972048D01*
X17000333Y-9953000D01*
X17019381Y-9924429D01*
X17028905Y-9914905D01*
X17095571Y-9962524D02*
X17105095Y-9953000D01*
X17124143Y-9943476D01*
X17171762Y-9943476D01*
X17190810Y-9953000D01*
X17200333Y-9962524D01*
X17209857Y-9981571D01*
X17209857Y-10000619D01*
X17200333Y-10029190D01*
X17086048Y-10143476D01*
X17209857Y-10143476D01*
X17447952Y-10143476D02*
X17447952Y-9943476D01*
X17533667Y-10143476D02*
X17533667Y-10038714D01*
X17524143Y-10019667D01*
X17505095Y-10010143D01*
X17476524Y-10010143D01*
X17457476Y-10019667D01*
X17447952Y-10029190D01*
X17657476Y-10143476D02*
X17638429Y-10133952D01*
X17628905Y-10124429D01*
X17619381Y-10105381D01*
X17619381Y-10048238D01*
X17628905Y-10029190D01*
X17638429Y-10019667D01*
X17657476Y-10010143D01*
X17686048Y-10010143D01*
X17705095Y-10019667D01*
X17714619Y-10029190D01*
X17724143Y-10048238D01*
X17724143Y-10105381D01*
X17714619Y-10124429D01*
X17705095Y-10133952D01*
X17686048Y-10143476D01*
X17657476Y-10143476D01*
X17838429Y-10143476D02*
X17819381Y-10133952D01*
X17809857Y-10114905D01*
X17809857Y-9943476D01*
X17990810Y-10133952D02*
X17971762Y-10143476D01*
X17933667Y-10143476D01*
X17914619Y-10133952D01*
X17905095Y-10114905D01*
X17905095Y-10038714D01*
X17914619Y-10019667D01*
X17933667Y-10010143D01*
X17971762Y-10010143D01*
X17990810Y-10019667D01*
X18000333Y-10038714D01*
X18000333Y-10057762D01*
X17905095Y-10076810D01*
X18076524Y-10133952D02*
X18095571Y-10143476D01*
X18133667Y-10143476D01*
X18152714Y-10133952D01*
X18162238Y-10114905D01*
X18162238Y-10105381D01*
X18152714Y-10086333D01*
X18133667Y-10076810D01*
X18105095Y-10076810D01*
X18086048Y-10067286D01*
X18076524Y-10048238D01*
X18076524Y-10038714D01*
X18086048Y-10019667D01*
X18105095Y-10010143D01*
X18133667Y-10010143D01*
X18152714Y-10019667D01*
X18228905Y-10219667D02*
X18238429Y-10210143D01*
X18257476Y-10181571D01*
X18267000Y-10162524D01*
X18276524Y-10133952D01*
X18286048Y-10086333D01*
X18286048Y-10048238D01*
X18276524Y-10000619D01*
X18267000Y-9972048D01*
X18257476Y-9953000D01*
X18238429Y-9924429D01*
X18228905Y-9914905D01*
M02*
