%TF.GenerationSoftware,KiCad,Pcbnew,(6.0.10)*%
%TF.CreationDate,2023-02-17T12:20:43-08:00*%
%TF.ProjectId,Excercise2,45786365-7263-4697-9365-322e6b696361,rev?*%
%TF.SameCoordinates,Original*%
%TF.FileFunction,Legend,Top*%
%TF.FilePolarity,Positive*%
%FSLAX46Y46*%
G04 Gerber Fmt 4.6, Leading zero omitted, Abs format (unit mm)*
G04 Created by KiCad (PCBNEW (6.0.10)) date 2023-02-17 12:20:43*
%MOMM*%
%LPD*%
G01*
G04 APERTURE LIST*
%ADD10C,0.150000*%
%ADD11C,0.120000*%
G04 APERTURE END LIST*
D10*
%TO.C,D1*%
X158652380Y-61698095D02*
X157652380Y-61698095D01*
X157652380Y-61460000D01*
X157700000Y-61317142D01*
X157795238Y-61221904D01*
X157890476Y-61174285D01*
X158080952Y-61126666D01*
X158223809Y-61126666D01*
X158414285Y-61174285D01*
X158509523Y-61221904D01*
X158604761Y-61317142D01*
X158652380Y-61460000D01*
X158652380Y-61698095D01*
X158652380Y-60174285D02*
X158652380Y-60745714D01*
X158652380Y-60460000D02*
X157652380Y-60460000D01*
X157795238Y-60555238D01*
X157890476Y-60650476D01*
X157938095Y-60745714D01*
%TO.C,R2*%
X141042380Y-76139602D02*
X140566190Y-76472936D01*
X141042380Y-76711031D02*
X140042380Y-76711031D01*
X140042380Y-76330078D01*
X140090000Y-76234840D01*
X140137619Y-76187221D01*
X140232857Y-76139602D01*
X140375714Y-76139602D01*
X140470952Y-76187221D01*
X140518571Y-76234840D01*
X140566190Y-76330078D01*
X140566190Y-76711031D01*
X140137619Y-75758650D02*
X140090000Y-75711031D01*
X140042380Y-75615793D01*
X140042380Y-75377697D01*
X140090000Y-75282459D01*
X140137619Y-75234840D01*
X140232857Y-75187221D01*
X140328095Y-75187221D01*
X140470952Y-75234840D01*
X141042380Y-75806269D01*
X141042380Y-75187221D01*
%TO.C,U1*%
X151048095Y-69712380D02*
X151048095Y-70521904D01*
X151095714Y-70617142D01*
X151143333Y-70664761D01*
X151238571Y-70712380D01*
X151429047Y-70712380D01*
X151524285Y-70664761D01*
X151571904Y-70617142D01*
X151619523Y-70521904D01*
X151619523Y-69712380D01*
X152619523Y-70712380D02*
X152048095Y-70712380D01*
X152333809Y-70712380D02*
X152333809Y-69712380D01*
X152238571Y-69855238D01*
X152143333Y-69950476D01*
X152048095Y-69998095D01*
%TO.C,C1*%
X144347142Y-83986666D02*
X144394761Y-84034285D01*
X144442380Y-84177142D01*
X144442380Y-84272380D01*
X144394761Y-84415238D01*
X144299523Y-84510476D01*
X144204285Y-84558095D01*
X144013809Y-84605714D01*
X143870952Y-84605714D01*
X143680476Y-84558095D01*
X143585238Y-84510476D01*
X143490000Y-84415238D01*
X143442380Y-84272380D01*
X143442380Y-84177142D01*
X143490000Y-84034285D01*
X143537619Y-83986666D01*
X144442380Y-83034285D02*
X144442380Y-83605714D01*
X144442380Y-83320000D02*
X143442380Y-83320000D01*
X143585238Y-83415238D01*
X143680476Y-83510476D01*
X143728095Y-83605714D01*
%TO.C,J1*%
X149396666Y-65492380D02*
X149396666Y-66206666D01*
X149349047Y-66349523D01*
X149253809Y-66444761D01*
X149110952Y-66492380D01*
X149015714Y-66492380D01*
X150396666Y-66492380D02*
X149825238Y-66492380D01*
X150110952Y-66492380D02*
X150110952Y-65492380D01*
X150015714Y-65635238D01*
X149920476Y-65730476D01*
X149825238Y-65778095D01*
%TO.C,R4*%
X159874880Y-76366666D02*
X159398690Y-76700000D01*
X159874880Y-76938095D02*
X158874880Y-76938095D01*
X158874880Y-76557142D01*
X158922500Y-76461904D01*
X158970119Y-76414285D01*
X159065357Y-76366666D01*
X159208214Y-76366666D01*
X159303452Y-76414285D01*
X159351071Y-76461904D01*
X159398690Y-76557142D01*
X159398690Y-76938095D01*
X159208214Y-75509523D02*
X159874880Y-75509523D01*
X158827261Y-75747619D02*
X159541547Y-75985714D01*
X159541547Y-75366666D01*
%TO.C,C2*%
X154437142Y-83986666D02*
X154484761Y-84034285D01*
X154532380Y-84177142D01*
X154532380Y-84272380D01*
X154484761Y-84415238D01*
X154389523Y-84510476D01*
X154294285Y-84558095D01*
X154103809Y-84605714D01*
X153960952Y-84605714D01*
X153770476Y-84558095D01*
X153675238Y-84510476D01*
X153580000Y-84415238D01*
X153532380Y-84272380D01*
X153532380Y-84177142D01*
X153580000Y-84034285D01*
X153627619Y-83986666D01*
X153627619Y-83605714D02*
X153580000Y-83558095D01*
X153532380Y-83462857D01*
X153532380Y-83224761D01*
X153580000Y-83129523D01*
X153627619Y-83081904D01*
X153722857Y-83034285D01*
X153818095Y-83034285D01*
X153960952Y-83081904D01*
X154532380Y-83653333D01*
X154532380Y-83034285D01*
%TO.C,R3*%
X159499880Y-69059602D02*
X159023690Y-69392936D01*
X159499880Y-69631031D02*
X158499880Y-69631031D01*
X158499880Y-69250078D01*
X158547500Y-69154840D01*
X158595119Y-69107221D01*
X158690357Y-69059602D01*
X158833214Y-69059602D01*
X158928452Y-69107221D01*
X158976071Y-69154840D01*
X159023690Y-69250078D01*
X159023690Y-69631031D01*
X158499880Y-68726269D02*
X158499880Y-68107221D01*
X158880833Y-68440555D01*
X158880833Y-68297697D01*
X158928452Y-68202459D01*
X158976071Y-68154840D01*
X159071309Y-68107221D01*
X159309404Y-68107221D01*
X159404642Y-68154840D01*
X159452261Y-68202459D01*
X159499880Y-68297697D01*
X159499880Y-68583412D01*
X159452261Y-68678650D01*
X159404642Y-68726269D01*
%TO.C,R1*%
X141042380Y-68746666D02*
X140566190Y-69080000D01*
X141042380Y-69318095D02*
X140042380Y-69318095D01*
X140042380Y-68937142D01*
X140090000Y-68841904D01*
X140137619Y-68794285D01*
X140232857Y-68746666D01*
X140375714Y-68746666D01*
X140470952Y-68794285D01*
X140518571Y-68841904D01*
X140566190Y-68937142D01*
X140566190Y-69318095D01*
X141042380Y-67794285D02*
X141042380Y-68365714D01*
X141042380Y-68080000D02*
X140042380Y-68080000D01*
X140185238Y-68175238D01*
X140280476Y-68270476D01*
X140328095Y-68365714D01*
%TO.C,D2*%
X159704880Y-84558095D02*
X158704880Y-84558095D01*
X158704880Y-84320000D01*
X158752500Y-84177142D01*
X158847738Y-84081904D01*
X158942976Y-84034285D01*
X159133452Y-83986666D01*
X159276309Y-83986666D01*
X159466785Y-84034285D01*
X159562023Y-84081904D01*
X159657261Y-84177142D01*
X159704880Y-84320000D01*
X159704880Y-84558095D01*
X158800119Y-83605714D02*
X158752500Y-83558095D01*
X158704880Y-83462857D01*
X158704880Y-83224761D01*
X158752500Y-83129523D01*
X158800119Y-83081904D01*
X158895357Y-83034285D01*
X158990595Y-83034285D01*
X159133452Y-83081904D01*
X159704880Y-83653333D01*
X159704880Y-83034285D01*
D11*
%TO.C,D1*%
X158885000Y-63420000D02*
X161155000Y-63420000D01*
X161155000Y-63420000D02*
X161155000Y-59360000D01*
X158885000Y-59360000D02*
X158885000Y-63420000D01*
%TO.C,R2*%
X141505000Y-76200000D02*
X141505000Y-75745872D01*
X142975000Y-76200000D02*
X142975000Y-75745872D01*
%TO.C,U1*%
X151810000Y-71100000D02*
X148360000Y-71100000D01*
X151810000Y-76220000D02*
X153760000Y-76220000D01*
X151810000Y-76220000D02*
X149860000Y-76220000D01*
X151810000Y-71100000D02*
X153760000Y-71100000D01*
%TO.C,C1*%
X143175000Y-81335000D02*
X141305000Y-81335000D01*
X141305000Y-81335000D02*
X141305000Y-85420000D01*
X143175000Y-85420000D02*
X143175000Y-81335000D01*
%TO.C,J1*%
X144650000Y-58420000D02*
X154810000Y-58420000D01*
X154810000Y-64770000D02*
X154810000Y-57150000D01*
X154810000Y-57150000D02*
X144650000Y-57150000D01*
X144650000Y-57150000D02*
X144650000Y-64770000D01*
X144650000Y-64770000D02*
X154810000Y-64770000D01*
%TO.C,R4*%
X161807500Y-76427064D02*
X161807500Y-75972936D01*
X160337500Y-76427064D02*
X160337500Y-75972936D01*
%TO.C,C2*%
X153135000Y-83558748D02*
X153135000Y-84081252D01*
X151665000Y-83558748D02*
X151665000Y-84081252D01*
%TO.C,R3*%
X161432500Y-69120000D02*
X161432500Y-68665872D01*
X159962500Y-69120000D02*
X159962500Y-68665872D01*
%TO.C,R1*%
X141505000Y-68807064D02*
X141505000Y-68352936D01*
X142975000Y-68807064D02*
X142975000Y-68352936D01*
%TO.C,D2*%
X159937500Y-86280000D02*
X162207500Y-86280000D01*
X162207500Y-86280000D02*
X162207500Y-82220000D01*
X159937500Y-82220000D02*
X159937500Y-86280000D01*
%TD*%
M02*
